<?xml version="1.0" encoding="UTF-8"?>
<svg width="50px" height="50px" viewBox="0 0 50 50" version="1.1" xmlns="http://www.w3.org/2000/svg" xmlns:xlink="http://www.w3.org/1999/xlink">
    <!-- Generator: Sketch 48.2 (47327) - http://www.bohemiancoding.com/sketch -->
    <title>soundcloud</title>
    <desc>Created with Sketch.</desc>
    <defs></defs>
    <g id="Desktop-HD" stroke="none" stroke-width="1" fill="none" fill-rule="evenodd" transform="translate(-100.000000, -206.000000)">
        <g id="soundcloud" transform="translate(100.000000, 206.000000)" fill-rule="nonzero">
            <circle id="Oval" fill="#FF6A22" cx="25" cy="25" r="25"></circle>
            <path d="M7.55105883,30.772829 C7.53909855,30.8553336 7.48151202,30.9142655 7.40664952,30.9142655 C7.33178703,30.9142655 7.27420049,30.8553336 7.26268319,30.7710157 L7,28.7591727 L7.26268319,26.7137838 C7.27375752,26.6285593 7.33134405,26.5696274 7.40664952,26.5696274 C7.48106904,26.5696274 7.53865558,26.6285593 7.55105883,26.7137838 L7.863798,28.7614393 L7.55105883,30.772829 Z M8.88928128,31.9949851 C8.87687802,32.0824763 8.81486176,32.1436747 8.73822737,32.1436747 C8.66380785,32.1436747 8.59869077,32.0824763 8.58850238,31.9949851 L8.23500966,28.7587194 L8.58850238,25.4499221 C8.59913374,25.3646975 8.66380785,25.3012325 8.73822737,25.3012325 C8.81486176,25.3012325 8.87687802,25.3633376 8.88928128,25.4499221 L9.29150106,28.7587194 L8.88928128,31.9949851 Z M10.3333743,32.5430514 C10.323186,32.6482221 10.2461086,32.7230203 10.1535272,32.7230203 C10.0578449,32.7230203 9.98209649,32.6482221 9.97279405,32.5430514 L9.63746324,28.7614393 L9.97279405,24.8361241 C9.98121055,24.7295934 10.0578449,24.6534353 10.1535272,24.6534353 C10.2461086,24.6534353 10.322743,24.7295934 10.3333743,24.8361241 L10.7138884,28.7614393 L10.3333743,32.5430514 Z M11.7916426,32.6631818 C11.7810112,32.7837654 11.6888728,32.8748831 11.5794583,32.8748831 C11.4673861,32.8748831 11.3756906,32.7837654 11.3663882,32.6631818 L11.0496622,28.7614393 L11.3663882,24.7282335 C11.3756906,24.6067432 11.4673861,24.5156254 11.5794583,24.5156254 C11.6888728,24.5156254 11.7810112,24.6067432 11.7916426,24.7282335 L12.1508939,28.7614393 L11.7916426,32.6631818 Z M13.2578843,32.694461 C13.2503538,32.8345375 13.1435972,32.9383482 13.0173498,32.9383482 C12.8871156,32.9383482 12.7839028,32.8345375 12.7750434,32.694461 L12.4755934,28.760986 L12.7750434,25.0192662 C12.7843458,24.8800963 12.8871156,24.7762856 13.0173498,24.7762856 C13.1458121,24.7762856 13.2503538,24.8800963 13.2578843,25.0174529 L13.5972019,28.760986 L13.2578843,32.694461 Z M14.7383012,32.6967276 L14.7383012,32.694461 C14.7294417,32.8494971 14.609396,32.971894 14.4649866,32.971894 C14.3201344,32.971894 14.2000886,32.8490438 14.1916721,32.6967276 L13.9121559,28.7632526 L14.1916721,22.6755914 C14.2000886,22.5205553 14.3201344,22.3981584 14.4649866,22.3981584 C14.6098389,22.3981584 14.7298847,22.5210086 14.7383012,22.6733248 L15.0550271,28.7632526 L14.7383012,32.6967276 Z M16.2076438,32.694461 L16.2076438,32.6921944 C16.1987843,32.8635501 16.0663353,33 15.9024351,33 C15.7416358,33 15.6087438,32.8635501 15.6007703,32.6921944 L15.3367582,28.7841054 L15.6007703,21.3038391 C15.6087438,21.1324834 15.7416358,20.9969401 15.9024351,20.9969401 C16.0663353,20.9969401 16.1987843,21.1324834 16.2076438,21.3038391 L16.5048789,28.7841054 L16.2076438,32.694461 Z M17.731915,32.6341691 L17.731915,32.6319025 C17.7252704,32.8227511 17.5786462,32.9709874 17.3983561,32.9709874 C17.2180659,32.9709874 17.0714418,32.8227511 17.0647972,32.6341691 L16.8198329,28.7659725 C16.8198329,28.7659725 17.0647972,20.6623884 17.0647972,20.6601218 C17.0718847,20.4715399 17.2180659,20.3205837 17.3983561,20.3205837 C17.5786462,20.3205837 17.7257134,20.4715399 17.731915,20.6601218 L18.0087733,28.7659725 L17.731915,32.6341691 Z M19.2473268,32.6083298 C19.2402392,32.8159513 19.0812118,32.9786939 18.8832027,32.9786939 C18.6847506,32.9786939 18.5257232,32.8159513 18.5186356,32.6101431 L18.2900614,28.7650659 L18.5186356,20.388582 C18.5257232,20.1800538 18.6847506,20.0177646 18.8832027,20.0177646 C19.0812118,20.0177646 19.2406822,20.1800538 19.2473268,20.388582 L19.5011505,28.7650659 L19.2473268,32.6083298 Z M20.772484,32.5743306 L20.772484,32.572064 C20.7653964,32.7964584 20.5939657,32.974614 20.3764658,32.974614 C20.1620667,32.974614 19.9870922,32.7964584 19.9831055,32.5743306 L19.7731361,28.7659725 L19.9808906,20.6034566 C19.9870922,20.3758889 20.1616237,20.2 20.3764658,20.2 C20.5939657,20.2 20.7653964,20.3758889 20.772484,20.6034566 L21.0081458,28.7659725 L20.772484,32.5743306 Z M22.3100444,32.5516645 L22.3100444,32.5484913 C22.3065006,32.7928318 22.117794,32.9809605 21.88479,32.9809605 C21.6500142,32.9809605 21.4639653,32.7928318 21.4568778,32.5516645 L21.2672852,28.7655192 L21.4573207,20.9017425 C21.4644083,20.6578552 21.6504571,20.4670067 21.885233,20.4670067 C22.118237,20.4670067 22.3069436,20.6578552 22.3104874,20.9017425 L22.5253295,28.7677858 L22.3100444,32.5516645 Z M23.878613,32.1522879 L23.8595651,32.5231053 C23.8573503,32.652302 23.8041935,32.7692591 23.7231294,32.853577 C23.6398504,32.9365349 23.5255633,32.9895736 23.4046315,32.9895736 C23.263766,32.9895736 23.1397335,32.9233886 23.0546826,32.8191245 C22.9917804,32.7434197 22.9527987,32.6455022 22.948369,32.5425981 C22.9470401,32.5380649 22.9470401,32.5321717 22.9470401,32.5258252 C22.9470401,32.5258252 22.7720656,28.7695991 22.7720656,28.7632526 L22.9448252,19.4959909 L22.9470401,19.4071398 C22.948369,19.2448505 23.0325339,19.1002408 23.1583384,19.0172829 C23.2287711,18.9692308 23.3120501,18.9411248 23.4050745,18.9411248 C23.496327,18.9411248 23.5827068,18.9701374 23.6549115,19.0213628 C23.7776151,19.1052274 23.8577933,19.2462105 23.8600081,19.4075931 L24.0522585,28.7677858 L23.878613,32.1522879 Z M25.4028842,32.4745998 L25.4028842,32.4700666 C25.3997834,32.7438731 25.1805116,32.9669075 24.9156136,32.9669075 C24.6498296,32.9669075 24.4310008,32.7438731 24.4283429,32.4723332 L24.327788,30.6454455 L24.2290049,28.7695991 L24.4283429,18.6124664 L24.4283429,18.561241 C24.4287859,18.4071115 24.4996616,18.2693016 24.609076,18.1763706 C24.692798,18.1061057 24.8004405,18.0634934 24.9156136,18.0634934 C25.0073091,18.0634934 25.0923599,18.0893328 25.1650076,18.1328517 C25.3036582,18.2217028 25.4006694,18.3790055 25.4050991,18.5589744 L25.6208271,28.7691458 L25.4028842,32.4745998 Z M38.5738104,32.9768806 C38.5738104,32.9768806 26.3109796,32.9768806 26.2981334,32.9768806 C26.0332353,32.9492279 25.8237089,32.7334467 25.8192792,32.4555603 L25.8192792,18.0743731 C25.8237089,17.8096331 25.9127466,17.6731832 26.2458625,17.5421731 C27.1056738,17.201275 28.0793291,17 29.0800059,17 C33.1620052,17 36.5068968,20.2045332 36.8617185,24.2866978 C37.3870849,24.0623034 37.9673799,23.9344666 38.5738104,23.9344666 C41.0181373,23.9344666 43,25.9635359 43,28.46678 C43,30.9695708 41.0181373,32.9768806 38.5738104,32.9768806 Z" id="Shape" fill="#F1F2F2"></path>
        </g>
    </g>
</svg>