<?xml version="1.0" encoding="UTF-8"?>
<svg width="16px" height="16px" viewBox="0 0 16 16" version="1.1" xmlns="http://www.w3.org/2000/svg" xmlns:xlink="http://www.w3.org/1999/xlink">
    <!-- Generator: Sketch 48.2 (47327) - http://www.bohemiancoding.com/sketch -->
    <title>call-answer</title>
    <desc>Created with Sketch.</desc>
    <defs></defs>
    <g id="Desktop-HD" stroke="none" stroke-width="1" fill="none" fill-rule="evenodd" transform="translate(-184.000000, -236.000000)">
        <g id="call-answer" transform="translate(184.000000, 236.000000)" fill="#FFFFFF" fill-rule="nonzero">
            <path d="M15.6413092,12.655229 L13.1703588,10.1784034 C12.6781912,9.68710172 11.8631522,9.70202874 11.353839,10.2126802 L10.1089636,11.4600999 C10.0303142,11.4166549 9.94890685,11.371275 9.86331649,11.3231307 C9.07719065,10.8865615 8.00124354,10.2881907 6.86903295,9.15258542 C5.73346678,8.01458446 5.13589715,6.93454088 4.69898181,6.14612703 C4.65287702,6.06260022 4.60870283,5.98206803 4.56508025,5.90559009 L5.40057453,5.06944664 L5.8113347,4.65724897 C6.32142934,4.14586033 6.33549521,3.32920494 5.84447683,2.83647508 L3.3735264,0.359373032 C2.88250803,-0.132665762 2.06710128,-0.117738743 1.55700665,0.393649892 L0.860608191,1.09563445 L0.879638485,1.11456965 C0.646126659,1.41320219 0.45099719,1.75762934 0.305787769,2.12905413 C0.171932171,2.48260336 0.0885941911,2.81998164 0.0504876352,3.15805099 C-0.275785385,5.86905575 0.960264419,8.34671064 4.31474454,11.7088375 C8.95165506,16.355932 12.6883959,16.0048706 12.8496018,15.9877322 C13.2006969,15.9456693 13.5371746,15.8615897 13.8791223,15.7284904 C14.2464897,15.5846566 14.5899084,15.3893614 14.887682,15.1558273 L14.902897,15.1693722 L15.6083969,14.4769704 C16.1174343,13.9656739 16.1320977,13.1487421 15.6413092,12.655229 Z" id="Shape"></path>
        </g>
    </g>
</svg>